# xmcd
#
# Track frame offsets: 
#        150
#        40958
#        60866
#        73740
#        131522
#        146597
#        160368
#        180368
#        193597
#        217141
#        228868
#        244451
#        260515
#        272517
#
# Disc length: 3975 seconds
#
# Revision: 0
# Processed by: cddbd v1.5.2PL0 Copyright (c) Steve Scherf et al.
# Submitted via: ExactAudioCopy v0.95a5
#
DISCID=ce0f850e
DTITLE=古典殿堂暇思集 - 古典小提琴名曲
DYEAR=2006
DGENRE=Acid Jazz
TTITLE0=流浪者之歌 萨拉莎泰
TTITLE1=小步舞曲 莫扎特
TTITLE2=天鹅 圣桑
TTITLE3=卡门幻想曲 萨拉莎泰
TTITLE4=诙谐曲 克莱斯勒
TTITLE5=爱的赞礼 艾尔加
TTITLE6=短曲 门德尔松
TTITLE7=妈妈教我的歌 德沃夏克
TTITLE8=圣母颂 舒伯特
TTITLE9=梦想曲 舒曼
TTITLE10=爱之悲 克莱斯勒
TTITLE11=爱之喜 克莱斯勒
TTITLE12=小夜曲 舒伯特
TTITLE13=泰绮思冥想曲 马斯奈
EXTD=
EXTT0=
EXTT1=
EXTT2=
EXTT3=
EXTT4=
EXTT5=
EXTT6=
EXTT7=
EXTT8=
EXTT9=
EXTT10=
EXTT11=
EXTT12=
EXTT13=
PLAYORDER=
